<svg xmlns="http://www.w3.org/2000/svg" width="660" height="656.499" viewBox="0 0 660 656.499">
  <g id="Group_1401" data-name="Group 1401" transform="translate(-400 -254.5)">
    <g id="Group_1400" data-name="Group 1400" transform="translate(-761 -0.5)">
      <g id="Rectangle_2203" data-name="Rectangle 2203" transform="translate(1161 441)" fill="#d1d1d1" stroke="#707070" stroke-width="1">
        <rect width="660" height="470.499" rx="55" stroke="none"/>
        <rect x="0.5" y="0.5" width="659" height="469.499" rx="54.5" fill="none"/>
      </g>
      <path id="Subtraction_21" data-name="Subtraction 21" d="M431.5,655.5H27.5A27.477,27.477,0,0,1,0,628V114.8L114.888,0H431.5A27.477,27.477,0,0,1,459,27.5V628a27.477,27.477,0,0,1-27.5,27.5Z" transform="translate(1261.499 255.501)" fill="#fff" stroke="#707070" stroke-width="1"/>
      <path id="Intersection_68" data-name="Intersection 68" d="M0,27.5A27.5,27.5,0,0,1,27.5,0h85.385L0,112.883Z" transform="translate(1375.383 369.387) rotate(180)" fill="none" stroke="#707070" stroke-width="1"/>
      <g id="Subtraction_20" data-name="Subtraction 20" transform="translate(1161 386.002)" fill="#fff">
        <path d="M 604.9998779296875 524.9965209960938 L 336.9996032714844 524.9965209960938 L 54.99993133544922 524.9965209960938 C 47.64209747314453 524.9965209960938 40.50476455688477 523.5556030273438 33.78609848022461 520.7138671875 C 27.29643058776855 517.9690551757813 21.46801376342773 514.0393676757813 16.46259689331055 509.0339660644531 C 11.45718097686768 504.0285339355469 7.527513980865479 498.2001342773438 4.782680511474609 491.71044921875 C 1.940930724143982 484.9917907714844 0.500014066696167 477.8544616699219 0.500014066696167 470.4966125488281 L 0.500014066696167 218.8422088623047 C 0.500014066696167 211.4844512939453 1.940930724143982 204.3470458984375 4.782680511474609 197.6282043457031 C 7.527513980865479 191.1384582519531 11.45718097686768 185.3098754882813 16.46259689331055 180.3044586181641 C 21.46792984008789 175.2988739013672 27.29643058776855 171.3690490722656 33.78609848022461 168.6241302490234 C 40.50484848022461 165.7822875976563 47.64218139648438 164.3413696289063 54.99993133544922 164.3413696289063 L 226.9998474121094 164.3413696289063 L 361.9998474121094 164.3413696289063 C 392.6026000976563 164.3413696289063 417.499755859375 139.4442138671875 417.499755859375 108.8414611816406 L 417.499755859375 79.998291015625 C 417.499755859375 69.265625 419.6016845703125 58.85429382324219 423.7471008300781 49.05337524414063 C 425.7392578125 44.34312438964844 428.2053527832031 39.79970932006836 431.0768432617188 35.54937362670898 C 433.9210205078125 31.33945846557617 437.187255859375 27.38087463378906 440.7848510742188 23.78337478637695 C 444.3823547363281 20.18570899963379 448.3410034179688 16.91945838928223 452.5509338378906 14.07529258728027 C 456.80126953125 11.20387554168701 461.3446655273438 8.737792015075684 466.054931640625 6.745542049407959 C 475.8557739257813 2.600125551223755 486.26708984375 0.4982088208198547 496.9998474121094 0.4982088208198547 L 604.9998779296875 0.4982088208198547 C 612.357666015625 0.4982088208198547 619.4949951171875 1.939125537872314 626.2136840820313 4.780875682830811 C 632.7031860351563 7.525625705718994 638.5316772460938 11.45529174804688 643.537109375 16.46079254150391 C 648.5424194335938 21.4659595489502 652.4721069335938 27.29445838928223 655.2171020507813 33.7842903137207 C 658.058837890625 40.50312423706055 659.4996948242188 47.64045715332031 659.4996948242188 54.99812698364258 L 659.4996948242188 159.8985443115234 L 659.4996948242188 470.4966125488281 C 659.4996948242188 477.8542785644531 658.058837890625 484.9916381835938 655.2171020507813 491.71044921875 C 652.4721069335938 498.2002868652344 648.5424194335938 504.0287780761719 643.537109375 509.0339660644531 C 638.5316772460938 514.0394287109375 632.7031860351563 517.9691162109375 626.2136840820313 520.7138671875 C 619.4949951171875 523.5556030273438 612.357666015625 524.9965209960938 604.9998779296875 524.9965209960938 Z" stroke="none"/>
        <path d="M 604.9998779296875 524.4965209960938 C 612.2903442382813 524.4965209960938 619.3621826171875 523.0689697265625 626.0189208984375 520.2533569335938 C 632.4488525390625 517.5338745117188 638.223876953125 513.64013671875 643.18359375 508.6804504394531 C 648.1431274414063 503.720947265625 652.036865234375 497.9459533691406 654.756591796875 491.5157165527344 C 657.5720825195313 484.8587951660156 658.9996948242188 477.7869567871094 658.9996948242188 470.4966125488281 L 658.9996948242188 159.8985443115234 L 658.9996948242188 54.99812698364258 C 658.9996948242188 47.70779037475586 657.5720825195313 40.63595962524414 654.756591796875 33.9791259765625 C 652.036865234375 27.54879188537598 648.1431274414063 21.7737922668457 643.18359375 16.81429290771484 C 638.223876953125 11.8546257019043 632.4488525390625 7.960875511169434 626.0188598632813 5.24137544631958 C 619.3621826171875 2.425792217254639 612.2903442382813 0.9982088208198547 604.9998779296875 0.9982088208198547 L 496.9998474121094 0.9982088208198547 C 486.3344421386719 0.9982088208198547 475.9885864257813 3.086792230606079 466.249755859375 7.206042289733887 C 461.5691833496094 9.185708999633789 457.054443359375 11.63629245758057 452.8308410644531 14.48954200744629 C 448.6473388671875 17.31595802307129 444.7134399414063 20.56179237365723 441.1383361816406 24.13687515258789 C 437.5632629394531 27.71187591552734 434.3175048828125 31.64579200744629 431.4911804199219 35.82929229736328 C 428.6377563476563 40.05287551879883 426.187255859375 44.567626953125 424.2076110839844 49.24820709228516 C 420.0883483886719 58.98712539672852 417.999755859375 69.33296203613281 417.999755859375 79.998291015625 L 417.999755859375 108.8414611816406 C 417.999755859375 139.7199554443359 392.8783569335938 164.8413696289063 361.9998474121094 164.8413696289063 L 226.9998474121094 164.8413696289063 L 54.99993133544922 164.8413696289063 C 47.70943069458008 164.8413696289063 40.63768005371094 166.26904296875 33.98093032836914 169.0846252441406 C 27.55084800720215 171.8043823242188 21.77576446533203 175.6982116699219 16.81609725952148 180.657958984375 C 11.85651397705078 185.6177062988281 7.962764263153076 191.3928680419922 5.243180751800537 197.8230438232422 C 2.427597522735596 204.4798736572266 1.000014066696167 211.5517120361328 1.000014066696167 218.8422088623047 L 1.000014066696167 470.4966125488281 C 1.000014066696167 477.7871398925781 2.427597522735596 484.8589477539063 5.243180751800537 491.5157165527344 C 7.962764263153076 497.9457092285156 11.85651397705078 503.7207946777344 16.81609725952148 508.6804504394531 C 21.77576446533203 513.6400146484375 27.55084800720215 517.5338134765625 33.98093032836914 520.2533569335938 C 40.63759613037109 523.0689697265625 47.70943069458008 524.4965209960938 54.99993133544922 524.4965209960938 L 336.9996032714844 524.4965209960938 L 604.9998779296875 524.4965209960938 M 604.9998779296875 525.4965209960938 L 336.9996032714844 525.4965209960938 L 54.99993133544922 525.4965209960938 C 47.57493209838867 525.4965209960938 40.37201309204102 524.0423583984375 33.59134674072266 521.1743774414063 C 27.0420970916748 518.4043579101563 21.16018104553223 514.438720703125 16.1090145111084 509.3875427246094 C 11.05784702301025 504.3363647460938 7.092180728912354 498.4544677734375 4.32218074798584 491.9052124023438 C 1.454180717468262 485.1245422363281 1.407877607562114e-05 477.921630859375 1.407877607562114e-05 470.4966125488281 L 1.407877607562114e-05 218.8422088623047 C 1.407877607562114e-05 211.4172058105469 1.454180717468262 204.2142944335938 4.32218074798584 197.4334564208984 C 7.092180728912354 190.8841247558594 11.05784702301025 185.0021209716797 16.1090145111084 179.9508819580078 C 21.16009712219238 174.8996276855469 27.04201316833496 170.9337921142578 33.59134674072266 168.1636199951172 C 40.37192916870117 165.2956237792969 47.57484817504883 163.8413696289063 54.99993133544922 163.8413696289063 L 226.9998474121094 163.8413696289063 L 361.9998474121094 163.8413696289063 C 392.3269348144531 163.8413696289063 416.999755859375 139.1685485839844 416.999755859375 108.8414611816406 L 416.999755859375 79.998291015625 C 416.999755859375 69.19837188720703 419.1149291992188 58.72154235839844 423.2865905761719 48.85862731933594 C 425.29150390625 44.11829376220703 427.773193359375 39.54629135131836 430.6625061035156 35.26945877075195 C 433.5243530273438 31.0334587097168 436.8110046386719 27.04995918273926 440.4312744140625 23.4297924041748 C 444.051513671875 19.8094596862793 448.0350036621094 16.52279281616211 452.2710266113281 13.66095924377441 C 456.5481872558594 10.77145862579346 461.1201782226563 8.289875030517578 465.8601684570313 6.285042285919189 C 475.7230224609375 2.113375425338745 486.1998596191406 -0.001791178365238011 496.9998474121094 -0.001791178365238011 L 604.9998779296875 -0.001791178365238011 C 612.4248657226563 -0.001791178365238011 619.6277465820313 1.452375531196594 626.408447265625 4.320375442504883 C 632.95751953125 7.090291976928711 638.8394165039063 11.05595874786377 643.8906860351563 16.10720825195313 C 648.9417724609375 21.1582088470459 652.9074096679688 27.04012489318848 655.6776123046875 33.58954238891602 C 658.5455322265625 40.37029266357422 659.9996948242188 47.57312393188477 659.9996948242188 54.99812698364258 L 659.9996948242188 159.8985443115234 L 659.9996948242188 470.4966125488281 C 659.9996948242188 477.921630859375 658.5455322265625 485.1244506835938 655.6776123046875 491.9052124023438 C 652.9074096679688 498.4546203613281 648.9417724609375 504.3365478515625 643.8906860351563 509.3875427246094 C 638.8394165039063 514.4387817382813 632.95751953125 518.4044799804688 626.408447265625 521.1743774414063 C 619.6277465820313 524.0423583984375 612.4248657226563 525.4965209960938 604.9998779296875 525.4965209960938 Z" stroke="none" fill="#707070"/>
      </g>
    </g>
  </g>
</svg>
